# xmcd
# 
# Track frame offsets:
#     150
#     16249
#     36174
#     55342
#     78755
#     90520
#     110700
#     122797
#     144418
#     163348
#     181659
#     199510
#     221305
#     254899
# 
# Disc length: 4440
# 
# Revision: 32
# Processed by: cddbd v1.5.2PL0 Copyright (c) Steve Scherf et al.
# Submitted via: fre:ac v1.0.31
# 
DISCID=bd11560e
DTITLE=Lenny Kravitz - Baptism
DYEAR=2004
DGENRE=Rock
TTITLE0=Minister Of Rock 'N Roll
TTITLE1=I Don't Want To Be A Star
TTITLE2=Lady
TTITLE3=Calling All Angels
TTITLE4=California
TTITLE5=Sistamamalover
TTITLE6=Where Are We Runnin'?
TTITLE7=Baptized
TTITLE8=Flash
TTITLE9=What Did I Do With My Life?
TTITLE10=Storm (feat. Jay-Z)
TTITLE11=The Other Side
TTITLE12=Destiny
TTITLE13=?? - Data Track
EXTD=
EXTT0=
EXTT1=
EXTT2=
EXTT3=
EXTT4=
EXTT5=
EXTT6=
EXTT7=
EXTT8=
EXTT9=
EXTT10=
EXTT11=
EXTT12=
EXTT13=
PLAYORDER=
